<svg xmlns="http://www.w3.org/2000/svg" xmlns:svg="http://www.w3.org/2000/svg" xmlns:xlink="http://www.w3.org/1999/xlink" id="svg665" width="610pt" height="316pt" version="1.1" viewBox="0 0 610 316"><metadata id="metadata2"/><defs id="defs6"><style id="style4" type="text/css">*{stroke-linecap:butt;stroke-linejoin:round}</style></defs><g id="figure_1" transform="translate(-42.793462,-35.304606)"><g id="patch_1"><path style="fill:none" id="path8" d="M 0,360 H 720 V 0 H 0 Z"/></g><g id="axes_1"><g id="patch_2"><path style="fill:#fff" id="path11" d="M 90,315 H 648 V 43.2 H 90 Z"/></g><g id="matplotlib.axis_1"><g id="xtick_1"><g id="line2d_1"><path style="fill:none;stroke:#b0b0b0;stroke-width:.8;stroke-linecap:square" id="path14" d="M 115.36364,315 V 43.2" clip-path="url(#p6a9e0866bc)"/></g><g id="line2d_2"><defs id="defs18"><path id="me6114c50f6" d="M 0,0 V 3.5" style="stroke:#000;stroke-width:.8"/></defs><g id="g22"><use style="stroke:#000;stroke-width:.8" id="use20" width="100%" height="100%" x="115.364" y="315" xlink:href="#me6114c50f6"/></g></g><g id="text_1"><g id="g30" transform="matrix(0.1,0,0,-0.1,112.18239,329.59844)"><defs id="defs26"><path id="DejaVuSans-48" d="m 31.78125,66.40625 q -7.609375,0 -11.453125,-7.5 Q 16.5,51.421875 16.5,36.375 q 0,-14.984375 3.828125,-22.484375 3.84375,-7.5 11.453125,-7.5 7.671875,0 11.5,7.5 3.84375,7.5 3.84375,22.484375 0,15.046875 -3.84375,22.53125 -3.828125,7.5 -11.5,7.5 z m 0,7.8125 q 12.265625,0 18.734375,-9.703125 6.46875,-9.6875 6.46875,-28.140625 0,-18.40625 -6.46875,-28.109375 -6.46875,-9.6875 -18.734375,-9.6875 -12.25,0 -18.71875,9.6875 Q 6.59375,17.96875 6.59375,36.375 q 0,18.453125 6.46875,28.140625 6.46875,9.703125 18.71875,9.703125 z"/></defs><use id="use28" width="100%" height="100%" x="0" y="0" xlink:href="#DejaVuSans-48"/></g></g></g><g id="xtick_2"><g id="line2d_3"><path style="fill:none;stroke:#b0b0b0;stroke-width:.8;stroke-linecap:square" id="path34" d="M 147.75653,315 V 43.2" clip-path="url(#p6a9e0866bc)"/></g><g id="line2d_4"><g id="g39"><use style="stroke:#000;stroke-width:.8" id="use37" width="100%" height="100%" x="147.757" y="315" xlink:href="#me6114c50f6"/></g></g><g id="text_2"><g id="g49" transform="matrix(0.1,0,0,-0.1,141.39403,329.59844)"><defs id="defs43"><path id="DejaVuSans-53" d="m 10.796875,72.90625 h 38.71875 v -8.3125 h -29.6875 V 46.734375 q 2.140625,0.734375 4.28125,1.09375 2.15625,0.359375 4.3125,0.359375 Q 40.625,48.1875 47.75,41.5 54.890625,34.8125 54.890625,23.390625 54.890625,11.625 47.5625,5.09375 40.234375,-1.421875 26.90625,-1.421875 q -4.59375,0 -9.359375,0.78125 -4.75,0.78125 -9.828125,2.34375 V 11.625 q 4.390625,-2.390625 9.078125,-3.5625 4.6875,-1.171875 9.90625,-1.171875 8.453125,0 13.375,4.4375 4.9375,4.4375 4.9375,12.0625 0,7.609375 -4.9375,12.046875 -4.921875,4.453125 -13.375,4.453125 -3.953125,0 -7.890625,-0.875 -3.921875,-0.875 -8.015625,-2.734375 z"/></defs><use id="use45" width="100%" height="100%" x="0" y="0" xlink:href="#DejaVuSans-53"/><use id="use47" width="100%" height="100%" x="63.623" y="0" xlink:href="#DejaVuSans-48"/></g></g></g><g id="xtick_3"><g id="line2d_5"><path style="fill:none;stroke:#b0b0b0;stroke-width:.8;stroke-linecap:square" id="path53" d="M 180.14942,315 V 43.2" clip-path="url(#p6a9e0866bc)"/></g><g id="line2d_6"><g id="g58"><use style="stroke:#000;stroke-width:.8" id="use56" width="100%" height="100%" x="180.149" y="315" xlink:href="#me6114c50f6"/></g></g><g id="text_3"><g id="g70" transform="matrix(0.1,0,0,-0.1,170.60567,329.59844)"><defs id="defs62"><path id="DejaVuSans-49" d="m 12.40625,8.296875 h 16.109375 v 55.625 L 10.984375,60.40625 v 8.984375 l 17.4375,3.515625 H 38.28125 V 8.296875 H 54.390625 V 0 H 12.40625 Z"/></defs><use id="use64" width="100%" height="100%" x="0" y="0" xlink:href="#DejaVuSans-49"/><use id="use66" width="100%" height="100%" x="63.623" y="0" xlink:href="#DejaVuSans-48"/><use id="use68" width="100%" height="100%" x="127.246" y="0" xlink:href="#DejaVuSans-48"/></g></g></g><g id="xtick_4"><g id="line2d_7"><path style="fill:none;stroke:#b0b0b0;stroke-width:.8;stroke-linecap:square" id="path74" d="M 212.54232,315 V 43.2" clip-path="url(#p6a9e0866bc)"/></g><g id="line2d_8"><g id="g79"><use style="stroke:#000;stroke-width:.8" id="use77" width="100%" height="100%" x="212.542" y="315" xlink:href="#me6114c50f6"/></g></g><g id="text_4"><g id="g88" transform="matrix(0.1,0,0,-0.1,202.99857,329.59844)"><use id="use82" width="100%" height="100%" x="0" y="0" xlink:href="#DejaVuSans-49"/><use id="use84" width="100%" height="100%" x="63.623" y="0" xlink:href="#DejaVuSans-53"/><use id="use86" width="100%" height="100%" x="127.246" y="0" xlink:href="#DejaVuSans-48"/></g></g></g><g id="xtick_5"><g id="line2d_9"><path style="fill:none;stroke:#b0b0b0;stroke-width:.8;stroke-linecap:square" id="path92" d="M 244.93521,315 V 43.2" clip-path="url(#p6a9e0866bc)"/></g><g id="line2d_10"><g id="g97"><use style="stroke:#000;stroke-width:.8" id="use95" width="100%" height="100%" x="244.935" y="315" xlink:href="#me6114c50f6"/></g></g><g id="text_5"><g id="g109" transform="matrix(0.1,0,0,-0.1,235.39146,329.59844)"><defs id="defs101"><path id="DejaVuSans-50" d="M 19.1875,8.296875 H 53.609375 V 0 H 7.328125 v 8.296875 q 5.609375,5.8125 15.296875,15.59375 9.703125,9.796875 12.1875,12.640625 4.734375,5.3125 6.609375,9 1.890625,3.6875 1.890625,7.25 0,5.8125 -4.078125,9.46875 -4.078125,3.671875 -10.625,3.671875 -4.640625,0 -9.796875,-1.609375 -5.140625,-1.609375 -11,-4.890625 v 9.96875 Q 13.765625,71.78125 18.9375,73 q 5.1875,1.21875 9.484375,1.21875 11.328125,0 18.0625,-5.671875 6.734375,-5.65625 6.734375,-15.125 0,-4.5 -1.6875,-8.53125 Q 49.859375,40.875 45.40625,35.40625 44.1875,33.984375 37.640625,27.21875 31.109375,20.453125 19.1875,8.296875 Z"/></defs><use id="use103" width="100%" height="100%" x="0" y="0" xlink:href="#DejaVuSans-50"/><use id="use105" width="100%" height="100%" x="63.623" y="0" xlink:href="#DejaVuSans-48"/><use id="use107" width="100%" height="100%" x="127.246" y="0" xlink:href="#DejaVuSans-48"/></g></g></g><g id="xtick_6"><g id="line2d_11"><path style="fill:none;stroke:#b0b0b0;stroke-width:.8;stroke-linecap:square" id="path113" d="M 277.32811,315 V 43.2" clip-path="url(#p6a9e0866bc)"/></g><g id="line2d_12"><g id="g118"><use style="stroke:#000;stroke-width:.8" id="use116" width="100%" height="100%" x="277.328" y="315" xlink:href="#me6114c50f6"/></g></g><g id="text_6"><g id="g127" transform="matrix(0.1,0,0,-0.1,267.78436,329.59844)"><use id="use121" width="100%" height="100%" x="0" y="0" xlink:href="#DejaVuSans-50"/><use id="use123" width="100%" height="100%" x="63.623" y="0" xlink:href="#DejaVuSans-53"/><use id="use125" width="100%" height="100%" x="127.246" y="0" xlink:href="#DejaVuSans-48"/></g></g></g><g id="xtick_7"><g id="line2d_13"><path style="fill:none;stroke:#b0b0b0;stroke-width:.8;stroke-linecap:square" id="path131" d="M 309.721,315 V 43.2" clip-path="url(#p6a9e0866bc)"/></g><g id="line2d_14"><g id="g136"><use style="stroke:#000;stroke-width:.8" id="use134" width="100%" height="100%" x="309.721" y="315" xlink:href="#me6114c50f6"/></g></g><g id="text_7"><g id="g148" transform="matrix(0.1,0,0,-0.1,300.17725,329.59844)"><defs id="defs140"><path id="DejaVuSans-51" d="M 40.578125,39.3125 Q 47.65625,37.796875 51.625,33 q 3.984375,-4.78125 3.984375,-11.8125 0,-10.78125 -7.421875,-16.703125 -7.421875,-5.90625 -21.09375,-5.90625 -4.578125,0 -9.4375,0.90625 -4.859375,0.90625 -10.03125,2.71875 v 9.515625 q 4.09375,-2.390625 8.96875,-3.609375 4.890625,-1.21875 10.21875,-1.21875 9.265625,0 14.125,3.65625 4.859375,3.65625 4.859375,10.640625 0,6.453125 -4.515625,10.078125 -4.515625,3.640625 -12.5625,3.640625 h -8.5 v 8.109375 h 8.890625 q 7.265625,0 11.125,2.90625 3.859375,2.90625 3.859375,8.375 0,5.609375 -3.984375,8.609375 -3.96875,3.015625 -11.390625,3.015625 -4.0625,0 -8.703125,-0.890625 Q 15.375,64.15625 9.8125,62.3125 v 8.78125 q 5.625,1.5625 10.53125,2.34375 4.90625,0.78125 9.25,0.78125 11.234375,0 17.765625,-5.109375 6.546875,-5.09375 6.546875,-13.78125 0,-6.0625 -3.46875,-10.234375 -3.46875,-4.171875 -9.859375,-5.78125 z"/></defs><use id="use142" width="100%" height="100%" x="0" y="0" xlink:href="#DejaVuSans-51"/><use id="use144" width="100%" height="100%" x="63.623" y="0" xlink:href="#DejaVuSans-48"/><use id="use146" width="100%" height="100%" x="127.246" y="0" xlink:href="#DejaVuSans-48"/></g></g></g><g id="xtick_8"><g id="line2d_15"><path style="fill:none;stroke:#b0b0b0;stroke-width:.8;stroke-linecap:square" id="path152" d="M 342.1139,315 V 43.2" clip-path="url(#p6a9e0866bc)"/></g><g id="line2d_16"><g id="g157"><use style="stroke:#000;stroke-width:.8" id="use155" width="100%" height="100%" x="342.114" y="315" xlink:href="#me6114c50f6"/></g></g><g id="text_8"><g id="g166" transform="matrix(0.1,0,0,-0.1,332.57015,329.59844)"><use id="use160" width="100%" height="100%" x="0" y="0" xlink:href="#DejaVuSans-51"/><use id="use162" width="100%" height="100%" x="63.623" y="0" xlink:href="#DejaVuSans-53"/><use id="use164" width="100%" height="100%" x="127.246" y="0" xlink:href="#DejaVuSans-48"/></g></g></g><g id="xtick_9"><g id="line2d_17"><path style="fill:none;stroke:#b0b0b0;stroke-width:.8;stroke-linecap:square" id="path170" d="M 374.50679,315 V 43.2" clip-path="url(#p6a9e0866bc)"/></g><g id="line2d_18"><g id="g175"><use style="stroke:#000;stroke-width:.8" id="use173" width="100%" height="100%" x="374.507" y="315" xlink:href="#me6114c50f6"/></g></g><g id="text_9"><g id="g187" transform="matrix(0.1,0,0,-0.1,364.96304,329.59844)"><defs id="defs179"><path id="DejaVuSans-52" d="M 37.796875,64.3125 12.890625,25.390625 h 24.90625 z m -2.59375,8.59375 h 12.40625 V 25.390625 h 10.40625 V 17.1875 H 47.609375 V 0 h -9.8125 V 17.1875 H 4.890625 v 9.515625 z"/></defs><use id="use181" width="100%" height="100%" x="0" y="0" xlink:href="#DejaVuSans-52"/><use id="use183" width="100%" height="100%" x="63.623" y="0" xlink:href="#DejaVuSans-48"/><use id="use185" width="100%" height="100%" x="127.246" y="0" xlink:href="#DejaVuSans-48"/></g></g></g><g id="xtick_10"><g id="line2d_19"><path style="fill:none;stroke:#b0b0b0;stroke-width:.8;stroke-linecap:square" id="path191" d="M 406.89969,315 V 43.2" clip-path="url(#p6a9e0866bc)"/></g><g id="line2d_20"><g id="g196"><use style="stroke:#000;stroke-width:.8" id="use194" width="100%" height="100%" x="406.9" y="315" xlink:href="#me6114c50f6"/></g></g><g id="text_10"><g id="g205" transform="matrix(0.1,0,0,-0.1,397.35594,329.59844)"><use id="use199" width="100%" height="100%" x="0" y="0" xlink:href="#DejaVuSans-52"/><use id="use201" width="100%" height="100%" x="63.623" y="0" xlink:href="#DejaVuSans-53"/><use id="use203" width="100%" height="100%" x="127.246" y="0" xlink:href="#DejaVuSans-48"/></g></g></g><g id="xtick_11"><g id="line2d_21"><path style="fill:none;stroke:#b0b0b0;stroke-width:.8;stroke-linecap:square" id="path209" d="M 439.29258,315 V 43.2" clip-path="url(#p6a9e0866bc)"/></g><g id="line2d_22"><g id="g214"><use style="stroke:#000;stroke-width:.8" id="use212" width="100%" height="100%" x="439.293" y="315" xlink:href="#me6114c50f6"/></g></g><g id="text_11"><g id="g223" transform="matrix(0.1,0,0,-0.1,429.74883,329.59844)"><use id="use217" width="100%" height="100%" x="0" y="0" xlink:href="#DejaVuSans-53"/><use id="use219" width="100%" height="100%" x="63.623" y="0" xlink:href="#DejaVuSans-48"/><use id="use221" width="100%" height="100%" x="127.246" y="0" xlink:href="#DejaVuSans-48"/></g></g></g><g id="xtick_12"><g id="line2d_23"><path style="fill:none;stroke:#b0b0b0;stroke-width:.8;stroke-linecap:square" id="path227" d="M 471.68547,315 V 43.2" clip-path="url(#p6a9e0866bc)"/></g><g id="line2d_24"><g id="g232"><use style="stroke:#000;stroke-width:.8" id="use230" width="100%" height="100%" x="471.685" y="315" xlink:href="#me6114c50f6"/></g></g><g id="text_12"><g id="g241" transform="matrix(0.1,0,0,-0.1,462.14172,329.59844)"><use id="use235" width="100%" height="100%" x="0" y="0" xlink:href="#DejaVuSans-53"/><use id="use237" width="100%" height="100%" x="63.623" y="0" xlink:href="#DejaVuSans-53"/><use id="use239" width="100%" height="100%" x="127.246" y="0" xlink:href="#DejaVuSans-48"/></g></g></g><g id="xtick_13"><g id="line2d_25"><path style="fill:none;stroke:#b0b0b0;stroke-width:.8;stroke-linecap:square" id="path245" d="M 504.07837,315 V 43.2" clip-path="url(#p6a9e0866bc)"/></g><g id="line2d_26"><g id="g250"><use style="stroke:#000;stroke-width:.8" id="use248" width="100%" height="100%" x="504.078" y="315" xlink:href="#me6114c50f6"/></g></g><g id="text_13"><g id="g262" transform="matrix(0.1,0,0,-0.1,494.53462,329.59844)"><defs id="defs254"><path id="DejaVuSans-54" d="m 33.015625,40.375 q -6.640625,0 -10.53125,-4.546875 -3.875,-4.53125 -3.875,-12.4375 0,-7.859375 3.875,-12.4375 3.890625,-4.5625 10.53125,-4.5625 6.640625,0 10.515625,4.5625 3.875,4.578125 3.875,12.4375 0,7.90625 -3.875,12.4375 Q 39.65625,40.375 33.015625,40.375 Z M 52.59375,71.296875 V 62.3125 q -3.71875,1.75 -7.5,2.671875 -3.78125,0.9375 -7.5,0.9375 -9.765625,0 -14.921875,-6.59375 -5.140625,-6.59375 -5.875,-19.921875 2.875,4.25 7.21875,6.515625 4.359375,2.265625 9.578125,2.265625 10.984375,0 17.359375,-6.671875 6.375,-6.65625 6.375,-18.125 0,-11.234375 -6.640625,-18.03125 -6.640625,-6.78125 -17.671875,-6.78125 -12.65625,0 -19.34375,9.6875 -6.6875,9.703125 -6.6875,28.109375 0,17.28125 8.203125,27.5625 8.203125,10.28125 22.015625,10.28125 3.71875,0 7.5,-0.734375 3.78125,-0.734375 7.890625,-2.1875 z"/></defs><use id="use256" width="100%" height="100%" x="0" y="0" xlink:href="#DejaVuSans-54"/><use id="use258" width="100%" height="100%" x="63.623" y="0" xlink:href="#DejaVuSans-48"/><use id="use260" width="100%" height="100%" x="127.246" y="0" xlink:href="#DejaVuSans-48"/></g></g></g><g id="xtick_14"><g id="line2d_27"><path style="fill:none;stroke:#b0b0b0;stroke-width:.8;stroke-linecap:square" id="path266" d="M 536.47126,315 V 43.2" clip-path="url(#p6a9e0866bc)"/></g><g id="line2d_28"><g id="g271"><use style="stroke:#000;stroke-width:.8" id="use269" width="100%" height="100%" x="536.471" y="315" xlink:href="#me6114c50f6"/></g></g><g id="text_14"><g id="g280" transform="matrix(0.1,0,0,-0.1,526.92751,329.59844)"><use id="use274" width="100%" height="100%" x="0" y="0" xlink:href="#DejaVuSans-54"/><use id="use276" width="100%" height="100%" x="63.623" y="0" xlink:href="#DejaVuSans-53"/><use id="use278" width="100%" height="100%" x="127.246" y="0" xlink:href="#DejaVuSans-48"/></g></g></g><g id="xtick_15"><g id="line2d_29"><path style="fill:none;stroke:#b0b0b0;stroke-width:.8;stroke-linecap:square" id="path284" d="M 568.86416,315 V 43.2" clip-path="url(#p6a9e0866bc)"/></g><g id="line2d_30"><g id="g289"><use style="stroke:#000;stroke-width:.8" id="use287" width="100%" height="100%" x="568.864" y="315" xlink:href="#me6114c50f6"/></g></g><g id="text_15"><g id="g301" transform="matrix(0.1,0,0,-0.1,559.32041,329.59844)"><defs id="defs293"><path id="DejaVuSans-55" d="m 8.203125,72.90625 h 46.875 V 68.703125 L 28.609375,0 H 18.3125 L 43.21875,64.59375 H 8.203125 Z"/></defs><use id="use295" width="100%" height="100%" x="0" y="0" xlink:href="#DejaVuSans-55"/><use id="use297" width="100%" height="100%" x="63.623" y="0" xlink:href="#DejaVuSans-48"/><use id="use299" width="100%" height="100%" x="127.246" y="0" xlink:href="#DejaVuSans-48"/></g></g></g><g id="xtick_16"><g id="line2d_31"><path style="fill:none;stroke:#b0b0b0;stroke-width:.8;stroke-linecap:square" id="path305" d="M 601.25705,315 V 43.2" clip-path="url(#p6a9e0866bc)"/></g><g id="line2d_32"><g id="g310"><use style="stroke:#000;stroke-width:.8" id="use308" width="100%" height="100%" x="601.257" y="315" xlink:href="#me6114c50f6"/></g></g><g id="text_16"><g id="g319" transform="matrix(0.1,0,0,-0.1,591.7133,329.59844)"><use id="use313" width="100%" height="100%" x="0" y="0" xlink:href="#DejaVuSans-55"/><use id="use315" width="100%" height="100%" x="63.623" y="0" xlink:href="#DejaVuSans-53"/><use id="use317" width="100%" height="100%" x="127.246" y="0" xlink:href="#DejaVuSans-48"/></g></g></g><g id="text_17"><g id="g372" transform="matrix(0.12,0,0,-0.12,320.46469,344.79625)"><defs id="defs338"><path id="DejaVuSans-73" d="m 9.8125,72.90625 h 9.859375 V 0 H 9.8125 Z"/><path id="DejaVuSans-108" d="M 9.421875,75.984375 H 18.40625 V 0 H 9.421875 Z"/><path id="DejaVuSans-111" d="m 30.609375,48.390625 q -7.21875,0 -11.421875,-5.640625 -4.203125,-5.640625 -4.203125,-15.453125 0,-9.8125 4.171875,-15.453125 4.1875,-5.640625 11.453125,-5.640625 7.1875,0 11.375,5.65625 4.203125,5.671875 4.203125,15.4375 0,9.71875 -4.203125,15.40625 -4.1875,5.6875 -11.375,5.6875 z m 0,7.609375 q 11.71875,0 18.40625,-7.625 6.703125,-7.609375 6.703125,-21.078125 0,-13.421875 -6.703125,-21.078125 -6.6875,-7.640625 -18.40625,-7.640625 -11.765625,0 -18.4375,7.640625 -6.65625,7.65625 -6.65625,21.078125 0,13.46875 6.65625,21.078125 Q 18.84375,56 30.609375,56 Z"/><path id="DejaVuSans-347" d="M 35.03125,79.984375 H 44.75 L 28.84375,61.625 h -7.484375 z m 9.25,-26.90625 v -8.5 Q 40.484375,46.53125 36.375,47.5 q -4.09375,0.984375 -8.5,0.984375 -6.6875,0 -10.03125,-2.046875 Q 14.5,44.390625 14.5,40.28125 q 0,-3.125 2.390625,-4.90625 2.390625,-1.78125 9.625,-3.390625 l 3.078125,-0.6875 Q 39.15625,29.25 43.1875,25.515625 47.21875,21.78125 47.21875,15.09375 q 0,-7.625 -6.03125,-12.078125 -6.03125,-4.4375 -16.578125,-4.4375 -4.390625,0 -9.15625,0.859375 Q 10.6875,0.296875 5.421875,2 v 9.28125 q 4.984375,-2.59375 9.8125,-3.890625 4.828125,-1.28125 9.578125,-1.28125 6.34375,0 9.75,2.171875 3.421875,2.171875 3.421875,6.125 0,3.65625 -2.46875,5.609375 -2.453125,1.953125 -10.8125,3.765625 l -3.125,0.734375 q -8.34375,1.75 -12.0625,5.390625 -3.703125,3.640625 -3.703125,9.984375 0,7.71875 5.46875,11.90625 Q 16.75,56 26.8125,56 q 4.96875,0 9.359375,-0.734375 4.40625,-0.71875 8.109375,-2.1875 z"/><path id="DejaVuSans-263" d="M 48.78125,52.59375 V 44.1875 q -3.8125,2.109375 -7.640625,3.15625 -3.828125,1.046875 -7.734375,1.046875 -8.75,0 -13.59375,-5.546875 -4.828125,-5.53125 -4.828125,-15.546875 0,-10.015625 4.828125,-15.5625 4.84375,-5.53125 13.59375,-5.53125 3.90625,0 7.734375,1.046875 3.828125,1.046875 7.640625,3.15625 v -8.3125 q -3.765625,-1.75 -7.796875,-2.625 -4.015625,-0.890625 -8.5625,-0.890625 -12.359375,0 -19.640625,7.765625 -7.265625,7.765625 -7.265625,20.953125 0,13.375 7.34375,21.03125 Q 20.21875,56 33.015625,56 q 4.140625,0 8.09375,-0.859375 3.953125,-0.84375 7.671875,-2.546875 z m -10.25,27.390625 H 48.25 L 32.34375,61.625 h -7.484375 z"/><path id="DejaVuSans-32"/><path id="DejaVuSans-115" d="m 44.28125,53.078125 v -8.5 Q 40.484375,46.53125 36.375,47.5 q -4.09375,0.984375 -8.5,0.984375 -6.6875,0 -10.03125,-2.046875 Q 14.5,44.390625 14.5,40.28125 q 0,-3.125 2.390625,-4.90625 2.390625,-1.78125 9.625,-3.390625 l 3.078125,-0.6875 Q 39.15625,29.25 43.1875,25.515625 47.21875,21.78125 47.21875,15.09375 q 0,-7.625 -6.03125,-12.078125 -6.03125,-4.4375 -16.578125,-4.4375 -4.390625,0 -9.15625,0.859375 Q 10.6875,0.296875 5.421875,2 v 9.28125 q 4.984375,-2.59375 9.8125,-3.890625 4.828125,-1.28125 9.578125,-1.28125 6.34375,0 9.75,2.171875 3.421875,2.171875 3.421875,6.125 0,3.65625 -2.46875,5.609375 -2.453125,1.953125 -10.8125,3.765625 l -3.125,0.734375 q -8.34375,1.75 -12.0625,5.390625 -3.703125,3.640625 -3.703125,9.984375 0,7.71875 5.46875,11.90625 Q 16.75,56 26.8125,56 q 4.96875,0 9.359375,-0.734375 4.40625,-0.71875 8.109375,-2.1875 z"/><path id="DejaVuSans-107" d="m 9.078125,75.984375 h 9.03125 v -44.875 l 26.8125,23.578125 h 11.46875 l -29,-25.578125 L 57.625,0 H 45.90625 L 18.109375,26.703125 V 0 h -9.03125 z"/><path id="DejaVuSans-322" d="m 9.71875,75.984375 h 8.984375 v -29.40625 l 6.109375,4.40625 3.703125,-5.1875 -9.8125,-6.875 V 0 H 9.71875 v 32.515625 l -6,-4.296875 -3.625,5.1875 9.625,6.875 z"/><path id="DejaVuSans-97" d="m 34.28125,27.484375 q -10.890625,0 -15.09375,-2.484375 -4.203125,-2.484375 -4.203125,-8.5 0,-4.78125 3.15625,-7.59375 3.15625,-2.796875 8.5625,-2.796875 7.484375,0 12,5.296875 4.515625,5.296875 4.515625,14.078125 v 2 z m 17.921875,3.71875 V 0 H 43.21875 v 8.296875 q -3.078125,-4.96875 -7.671875,-7.34375 -4.59375,-2.375 -11.234375,-2.375 -8.390625,0 -13.359375,4.71875 Q 6,8.015625 6,15.921875 q 0,9.21875 6.171875,13.90625 6.1875,4.6875 18.4375,4.6875 H 43.21875 v 0.890625 q 0,6.203125 -4.078125,9.59375 -4.078125,3.390625 -11.453125,3.390625 -4.6875,0 -9.140625,-1.125 -4.4375,-1.125 -8.53125,-3.375 v 8.3125 q 4.921875,1.90625 9.5625,2.84375 Q 24.21875,56 28.609375,56 q 11.875,0 17.734375,-6.15625 5.859375,-6.140625 5.859375,-18.640625 z"/><path id="DejaVuSans-100" d="m 45.40625,46.390625 v 29.59375 h 8.984375 V 0 H 45.40625 v 8.203125 q -2.828125,-4.875 -7.15625,-7.25 -4.3125,-2.375 -10.375,-2.375 -9.90625,0 -16.140625,7.90625 -6.21875,7.921875 -6.21875,20.8125 0,12.890625 6.21875,20.796875 Q 17.96875,56 27.875,56 q 6.0625,0 10.375,-2.375 4.328125,-2.359375 7.15625,-7.234375 z M 14.796875,27.296875 q 0,-9.90625 4.078125,-15.546875 4.078125,-5.640625 11.203125,-5.640625 7.125,0 11.21875,5.640625 4.109375,5.640625 4.109375,15.546875 0,9.90625 -4.109375,15.546875 -4.09375,5.640625 -11.21875,5.640625 -7.125,0 -11.203125,-5.640625 -4.078125,-5.640625 -4.078125,-15.546875 z"/><path id="DejaVuSans-110" d="M 54.890625,33.015625 V 0 H 45.90625 v 32.71875 q 0,7.765625 -3.03125,11.609375 -3.03125,3.859375 -9.078125,3.859375 -7.28125,0 -11.484375,-4.640625 -4.203125,-4.625 -4.203125,-12.640625 V 0 h -9.03125 v 54.6875 h 9.03125 v -8.5 q 3.234375,4.9375 7.59375,7.375 4.375,2.4375 10.09375,2.4375 9.421875,0 14.25,-5.828125 4.84375,-5.828125 4.84375,-17.15625 z"/><path id="DejaVuSans-105" d="M 9.421875,54.6875 H 18.40625 V 0 H 9.421875 Z m 0,21.296875 H 18.40625 V 64.59375 H 9.421875 Z"/><path id="DejaVuSans-243" d="m 30.609375,48.390625 q -7.21875,0 -11.421875,-5.640625 -4.203125,-5.640625 -4.203125,-15.453125 0,-9.8125 4.171875,-15.453125 4.1875,-5.640625 11.453125,-5.640625 7.1875,0 11.375,5.65625 4.203125,5.671875 4.203125,15.4375 0,9.71875 -4.203125,15.40625 -4.1875,5.6875 -11.375,5.6875 z m 0,7.609375 q 11.71875,0 18.40625,-7.625 6.703125,-7.609375 6.703125,-21.078125 0,-13.421875 -6.703125,-21.078125 -6.6875,-7.640625 -18.40625,-7.640625 -11.765625,0 -18.4375,7.640625 -6.65625,7.65625 -6.65625,21.078125 0,13.46875 6.65625,21.078125 Q 18.84375,56 30.609375,56 Z M 37.40625,79.984375 H 47.125 L 31.21875,61.625 h -7.484375 z"/><path id="DejaVuSans-119" d="M 4.203125,54.6875 H 13.1875 L 24.421875,12.015625 35.59375,54.6875 H 46.1875 L 57.421875,12.015625 68.609375,54.6875 H 77.59375 L 63.28125,0 H 52.6875 L 40.921875,44.828125 29.109375,0 H 18.5 Z"/></defs><use id="use340" width="100%" height="100%" x="0" y="0" xlink:href="#DejaVuSans-73"/><use id="use342" width="100%" height="100%" x="29.492" y="0" xlink:href="#DejaVuSans-108"/><use id="use344" width="100%" height="100%" x="57.275" y="0" xlink:href="#DejaVuSans-111"/><use id="use346" width="100%" height="100%" x="118.457" y="0" xlink:href="#DejaVuSans-347"/><use id="use348" width="100%" height="100%" x="170.557" y="0" xlink:href="#DejaVuSans-263"/><use id="use350" width="100%" height="100%" x="225.537" y="0" xlink:href="#DejaVuSans-32"/><use id="use352" width="100%" height="100%" x="257.324" y="0" xlink:href="#DejaVuSans-115"/><use id="use354" width="100%" height="100%" x="309.424" y="0" xlink:href="#DejaVuSans-107"/><use id="use356" width="100%" height="100%" x="367.334" y="0" xlink:href="#DejaVuSans-322"/><use id="use358" width="100%" height="100%" x="395.752" y="0" xlink:href="#DejaVuSans-97"/><use id="use360" width="100%" height="100%" x="457.031" y="0" xlink:href="#DejaVuSans-100"/><use id="use362" width="100%" height="100%" x="520.508" y="0" xlink:href="#DejaVuSans-110"/><use id="use364" width="100%" height="100%" x="583.887" y="0" xlink:href="#DejaVuSans-105"/><use id="use366" width="100%" height="100%" x="611.67" y="0" xlink:href="#DejaVuSans-107"/><use id="use368" width="100%" height="100%" x="665.955" y="0" xlink:href="#DejaVuSans-243"/><use id="use370" width="100%" height="100%" x="727.137" y="0" xlink:href="#DejaVuSans-119"/></g></g></g><g id="matplotlib.axis_2"><g id="ytick_1"><g id="line2d_33"><path style="fill:none;stroke:#b0b0b0;stroke-width:.8;stroke-linecap:square" id="path376" d="M 90,315 H 648" clip-path="url(#p6a9e0866bc)"/></g><g id="line2d_34"><defs id="defs380"><path id="m0a33bdf412" d="M 0,0 H -3.5" style="stroke:#000;stroke-width:.8"/></defs><g id="g384"><use style="stroke:#000;stroke-width:.8" id="use382" width="100%" height="100%" x="90" y="315" xlink:href="#m0a33bdf412"/></g></g><g id="text_18"><g id="g396" transform="matrix(0.1,0,0,-0.1,67.096875,318.79922)"><defs id="defs388"><path id="DejaVuSans-46" d="M 10.6875,12.40625 H 21 V 0 H 10.6875 Z"/></defs><use id="use390" width="100%" height="100%" x="0" y="0" xlink:href="#DejaVuSans-48"/><use id="use392" width="100%" height="100%" x="63.623" y="0" xlink:href="#DejaVuSans-46"/><use id="use394" width="100%" height="100%" x="95.41" y="0" xlink:href="#DejaVuSans-48"/></g></g></g><g id="ytick_2"><g id="line2d_35"><path style="fill:none;stroke:#b0b0b0;stroke-width:.8;stroke-linecap:square" id="path400" d="M 90,288.9941 H 648" clip-path="url(#p6a9e0866bc)"/></g><g id="line2d_36"><g id="g405"><use style="stroke:#000;stroke-width:.8" id="use403" width="100%" height="100%" x="90" y="288.994" xlink:href="#m0a33bdf412"/></g></g><g id="text_19"><g id="g414" transform="matrix(0.1,0,0,-0.1,67.096875,292.79332)"><use id="use408" width="100%" height="100%" x="0" y="0" xlink:href="#DejaVuSans-48"/><use id="use410" width="100%" height="100%" x="63.623" y="0" xlink:href="#DejaVuSans-46"/><use id="use412" width="100%" height="100%" x="95.41" y="0" xlink:href="#DejaVuSans-49"/></g></g></g><g id="ytick_3"><g id="line2d_37"><path style="fill:none;stroke:#b0b0b0;stroke-width:.8;stroke-linecap:square" id="path418" d="M 90,262.9882 H 648" clip-path="url(#p6a9e0866bc)"/></g><g id="line2d_38"><g id="g423"><use style="stroke:#000;stroke-width:.8" id="use421" width="100%" height="100%" x="90" y="262.988" xlink:href="#m0a33bdf412"/></g></g><g id="text_20"><g id="g432" transform="matrix(0.1,0,0,-0.1,67.096875,266.78742)"><use id="use426" width="100%" height="100%" x="0" y="0" xlink:href="#DejaVuSans-48"/><use id="use428" width="100%" height="100%" x="63.623" y="0" xlink:href="#DejaVuSans-46"/><use id="use430" width="100%" height="100%" x="95.41" y="0" xlink:href="#DejaVuSans-50"/></g></g></g><g id="ytick_4"><g id="line2d_39"><path style="fill:none;stroke:#b0b0b0;stroke-width:.8;stroke-linecap:square" id="path436" d="M 90,236.98231 H 648" clip-path="url(#p6a9e0866bc)"/></g><g id="line2d_40"><g id="g441"><use style="stroke:#000;stroke-width:.8" id="use439" width="100%" height="100%" x="90" y="236.982" xlink:href="#m0a33bdf412"/></g></g><g id="text_21"><g id="g450" transform="matrix(0.1,0,0,-0.1,67.096875,240.78153)"><use id="use444" width="100%" height="100%" x="0" y="0" xlink:href="#DejaVuSans-48"/><use id="use446" width="100%" height="100%" x="63.623" y="0" xlink:href="#DejaVuSans-46"/><use id="use448" width="100%" height="100%" x="95.41" y="0" xlink:href="#DejaVuSans-51"/></g></g></g><g id="ytick_5"><g id="line2d_41"><path style="fill:none;stroke:#b0b0b0;stroke-width:.8;stroke-linecap:square" id="path454" d="M 90,210.97641 H 648" clip-path="url(#p6a9e0866bc)"/></g><g id="line2d_42"><g id="g459"><use style="stroke:#000;stroke-width:.8" id="use457" width="100%" height="100%" x="90" y="210.976" xlink:href="#m0a33bdf412"/></g></g><g id="text_22"><g id="g468" transform="matrix(0.1,0,0,-0.1,67.096875,214.77563)"><use id="use462" width="100%" height="100%" x="0" y="0" xlink:href="#DejaVuSans-48"/><use id="use464" width="100%" height="100%" x="63.623" y="0" xlink:href="#DejaVuSans-46"/><use id="use466" width="100%" height="100%" x="95.41" y="0" xlink:href="#DejaVuSans-52"/></g></g></g><g id="ytick_6"><g id="line2d_43"><path style="fill:none;stroke:#b0b0b0;stroke-width:.8;stroke-linecap:square" id="path472" d="M 90,184.97051 H 648" clip-path="url(#p6a9e0866bc)"/></g><g id="line2d_44"><g id="g477"><use style="stroke:#000;stroke-width:.8" id="use475" width="100%" height="100%" x="90" y="184.97" xlink:href="#m0a33bdf412"/></g></g><g id="text_23"><g id="g486" transform="matrix(0.1,0,0,-0.1,67.096875,188.76973)"><use id="use480" width="100%" height="100%" x="0" y="0" xlink:href="#DejaVuSans-48"/><use id="use482" width="100%" height="100%" x="63.623" y="0" xlink:href="#DejaVuSans-46"/><use id="use484" width="100%" height="100%" x="95.41" y="0" xlink:href="#DejaVuSans-53"/></g></g></g><g id="ytick_7"><g id="line2d_45"><path style="fill:none;stroke:#b0b0b0;stroke-width:.8;stroke-linecap:square" id="path490" d="M 90,158.96461 H 648" clip-path="url(#p6a9e0866bc)"/></g><g id="line2d_46"><g id="g495"><use style="stroke:#000;stroke-width:.8" id="use493" width="100%" height="100%" x="90" y="158.965" xlink:href="#m0a33bdf412"/></g></g><g id="text_24"><g id="g504" transform="matrix(0.1,0,0,-0.1,67.096875,162.76383)"><use id="use498" width="100%" height="100%" x="0" y="0" xlink:href="#DejaVuSans-48"/><use id="use500" width="100%" height="100%" x="63.623" y="0" xlink:href="#DejaVuSans-46"/><use id="use502" width="100%" height="100%" x="95.41" y="0" xlink:href="#DejaVuSans-54"/></g></g></g><g id="ytick_8"><g id="line2d_47"><path style="fill:none;stroke:#b0b0b0;stroke-width:.8;stroke-linecap:square" id="path508" d="M 90,132.95872 H 648" clip-path="url(#p6a9e0866bc)"/></g><g id="line2d_48"><g id="g513"><use style="stroke:#000;stroke-width:.8" id="use511" width="100%" height="100%" x="90" y="132.959" xlink:href="#m0a33bdf412"/></g></g><g id="text_25"><g id="g522" transform="matrix(0.1,0,0,-0.1,67.096875,136.75793)"><use id="use516" width="100%" height="100%" x="0" y="0" xlink:href="#DejaVuSans-48"/><use id="use518" width="100%" height="100%" x="63.623" y="0" xlink:href="#DejaVuSans-46"/><use id="use520" width="100%" height="100%" x="95.41" y="0" xlink:href="#DejaVuSans-55"/></g></g></g><g id="ytick_9"><g id="line2d_49"><path style="fill:none;stroke:#b0b0b0;stroke-width:.8;stroke-linecap:square" id="path526" d="M 90,106.95282 H 648" clip-path="url(#p6a9e0866bc)"/></g><g id="line2d_50"><g id="g531"><use style="stroke:#000;stroke-width:.8" id="use529" width="100%" height="100%" x="90" y="106.953" xlink:href="#m0a33bdf412"/></g></g><g id="text_26"><g id="g543" transform="matrix(0.1,0,0,-0.1,67.096875,110.75204)"><defs id="defs535"><path id="DejaVuSans-56" d="m 31.78125,34.625 q -7.03125,0 -11.0625,-3.765625 -4.015625,-3.765625 -4.015625,-10.34375 0,-6.59375 4.015625,-10.359375 4.03125,-3.765625 11.0625,-3.765625 7.03125,0 11.078125,3.78125 4.0625,3.796875 4.0625,10.34375 0,6.578125 -4.03125,10.34375 Q 38.875,34.625 31.78125,34.625 Z m -9.859375,4.1875 Q 15.578125,40.375 12.03125,44.71875 8.5,49.078125 8.5,55.328125 q 0,8.734375 6.21875,13.8125 6.234375,5.078125 17.0625,5.078125 10.890625,0 17.09375,-5.078125 6.203125,-5.078125 6.203125,-13.8125 0,-6.25 -3.546875,-10.609375 Q 48,40.375 41.703125,38.8125 q 7.125,-1.65625 11.09375,-6.5 3.984375,-4.828125 3.984375,-11.796875 0,-10.609375 -6.46875,-16.28125 -6.46875,-5.65625 -18.53125,-5.65625 -12.046875,0 -18.53125,5.65625 -6.46875,5.671875 -6.46875,16.28125 0,6.96875 4,11.796875 4.015625,4.84375 11.140625,6.5 z M 18.3125,54.390625 q 0,-5.65625 3.53125,-8.828125 3.546875,-3.171875 9.9375,-3.171875 6.359375,0 9.9375,3.171875 3.59375,3.171875 3.59375,8.828125 0,5.671875 -3.59375,8.84375 -3.578125,3.171875 -9.9375,3.171875 -6.390625,0 -9.9375,-3.171875 Q 18.3125,60.0625 18.3125,54.390625 Z"/></defs><use id="use537" width="100%" height="100%" x="0" y="0" xlink:href="#DejaVuSans-48"/><use id="use539" width="100%" height="100%" x="63.623" y="0" xlink:href="#DejaVuSans-46"/><use id="use541" width="100%" height="100%" x="95.41" y="0" xlink:href="#DejaVuSans-56"/></g></g></g><g id="ytick_10"><g id="line2d_51"><path style="fill:none;stroke:#b0b0b0;stroke-width:.8;stroke-linecap:square" id="path547" d="M 90,80.946921 H 648" clip-path="url(#p6a9e0866bc)"/></g><g id="line2d_52"><g id="g552"><use style="stroke:#000;stroke-width:.8" id="use550" width="100%" height="100%" x="90" y="80.947" xlink:href="#m0a33bdf412"/></g></g><g id="text_27"><g id="g564" transform="matrix(0.1,0,0,-0.1,67.096875,84.74614)"><defs id="defs556"><path id="DejaVuSans-57" d="M 10.984375,1.515625 V 10.5 Q 14.703125,8.734375 18.5,7.8125 q 3.8125,-0.921875 7.484375,-0.921875 9.765625,0 14.90625,6.5625 5.15625,6.5625 5.890625,19.953125 -2.828125,-4.203125 -7.1875,-6.453125 -4.34375,-2.25 -9.609375,-2.25 -10.9375,0 -17.3125,6.609375 -6.375,6.625 -6.375,18.109375 0,11.21875 6.640625,18 6.640625,6.796875 17.671875,6.796875 12.65625,0 19.3125,-9.703125 6.671875,-9.6875 6.671875,-28.140625 0,-17.234375 -8.1875,-27.515625 -8.171875,-10.28125 -21.984375,-10.28125 -3.71875,0 -7.53125,0.734375 -3.796875,0.734375 -7.90625,2.203125 z m 19.625,30.90625 q 6.640625,0 10.515625,4.53125 3.890625,4.546875 3.890625,12.46875 0,7.859375 -3.890625,12.421875 -3.875,4.5625 -10.515625,4.5625 -6.640625,0 -10.515625,-4.5625 -3.875,-4.5625 -3.875,-12.421875 0,-7.921875 3.875,-12.46875 3.875,-4.53125 10.515625,-4.53125 z"/></defs><use id="use558" width="100%" height="100%" x="0" y="0" xlink:href="#DejaVuSans-48"/><use id="use560" width="100%" height="100%" x="63.623" y="0" xlink:href="#DejaVuSans-46"/><use id="use562" width="100%" height="100%" x="95.41" y="0" xlink:href="#DejaVuSans-57"/></g></g></g><g id="ytick_11"><g id="line2d_53"><path style="fill:none;stroke:#b0b0b0;stroke-width:.8;stroke-linecap:square" id="path568" d="M 90,54.941023 H 648" clip-path="url(#p6a9e0866bc)"/></g><g id="line2d_54"><g id="g573"><use style="stroke:#000;stroke-width:.8" id="use571" width="100%" height="100%" x="90" y="54.941" xlink:href="#m0a33bdf412"/></g></g><g id="text_28"><g id="g582" transform="matrix(0.1,0,0,-0.1,67.096875,58.740242)"><use id="use576" width="100%" height="100%" x="0" y="0" xlink:href="#DejaVuSans-49"/><use id="use578" width="100%" height="100%" x="63.623" y="0" xlink:href="#DejaVuSans-46"/><use id="use580" width="100%" height="100%" x="95.41" y="0" xlink:href="#DejaVuSans-48"/></g></g></g><g id="text_29"><g id="g639" transform="matrix(0,-0.12,-0.12,0,60.60125,248.82562)"><defs id="defs593"><path id="DejaVuSans-87" d="m 3.328125,72.90625 h 9.953125 l 15.328125,-61.625 15.28125,61.625 h 11.09375 l 15.328125,-61.625 15.28125,61.625 H 95.609375 L 77.296875,0 H 64.890625 L 49.515625,63.28125 33.984375,0 h -12.40625 z"/><path id="DejaVuSans-112" d="m 18.109375,8.203125 v -29 H 9.078125 V 54.6875 h 9.03125 v -8.296875 q 2.84375,4.875 7.15625,7.234375 Q 29.59375,56 35.59375,56 q 9.96875,0 16.1875,-7.90625 6.234375,-7.90625 6.234375,-20.796875 0,-12.890625 -6.234375,-20.8125 -6.21875,-7.90625 -16.1875,-7.90625 -6,0 -10.328125,2.375 -4.3125,2.375 -7.15625,7.25 z M 48.6875,27.296875 q 0,9.90625 -4.078125,15.546875 -4.078125,5.640625 -11.203125,5.640625 -7.140625,0 -11.21875,-5.640625 -4.078125,-5.640625 -4.078125,-15.546875 0,-9.90625 4.078125,-15.546875 4.078125,-5.640625 11.21875,-5.640625 7.125,0 11.203125,5.640625 4.078125,5.640625 4.078125,15.546875 z"/><path id="DejaVuSans-99" d="M 48.78125,52.59375 V 44.1875 q -3.8125,2.109375 -7.640625,3.15625 -3.828125,1.046875 -7.734375,1.046875 -8.75,0 -13.59375,-5.546875 -4.828125,-5.53125 -4.828125,-15.546875 0,-10.015625 4.828125,-15.5625 4.84375,-5.53125 13.59375,-5.53125 3.90625,0 7.734375,1.046875 3.828125,1.046875 7.640625,3.15625 v -8.3125 q -3.765625,-1.75 -7.796875,-2.625 -4.015625,-0.890625 -8.5625,-0.890625 -12.359375,0 -19.640625,7.765625 -7.265625,7.765625 -7.265625,20.953125 0,13.375 7.34375,21.03125 Q 20.21875,56 33.015625,56 q 4.140625,0 8.09375,-0.859375 3.953125,-0.84375 7.671875,-2.546875 z"/><path id="DejaVuSans-122" d="M 5.515625,54.6875 H 48.1875 V 46.484375 L 14.40625,7.171875 H 48.1875 V 0 H 4.296875 v 8.203125 l 33.796875,39.3125 H 5.515625 Z"/><path id="DejaVuSans-121" d="M 32.171875,-5.078125 Q 28.375,-14.84375 24.75,-17.8125 q -3.609375,-2.984375 -9.65625,-2.984375 h -7.1875 v 7.515625 h 5.28125 q 3.703125,0 5.75,1.765625 2.0625,1.75 4.546875,8.296875 L 25.09375,0.875 2.984375,54.6875 H 12.5 L 29.59375,11.921875 46.6875,54.6875 h 9.515625 z"/><path id="DejaVuSans-114" d="m 41.109375,46.296875 q -1.515625,0.875 -3.296875,1.28125 Q 36.03125,48 33.890625,48 26.265625,48 22.1875,43.046875 18.109375,38.09375 18.109375,28.8125 V 0 h -9.03125 v 54.6875 h 9.03125 v -8.5 q 2.84375,4.984375 7.375,7.390625 Q 30.03125,56 36.53125,56 q 0.921875,0 2.046875,-0.125 1.125,-0.109375 2.484375,-0.359375 z"/><path id="DejaVuSans-106" d="M 9.421875,54.6875 H 18.40625 V -0.984375 q 0,-10.4375 -3.984375,-15.125 -3.96875,-4.6875 -12.8125,-4.6875 H -1.8125 v 7.609375 h 2.40625 q 5.125,0 6.96875,2.375 1.859375,2.359375 1.859375,9.828125 z m 0,21.296875 H 18.40625 V 64.59375 H 9.421875 Z"/></defs><use id="use595" width="100%" height="100%" x="0" y="0" xlink:href="#DejaVuSans-87"/><use id="use597" width="100%" height="100%" x="98.877" y="0" xlink:href="#DejaVuSans-115"/><use id="use599" width="100%" height="100%" x="150.977" y="0" xlink:href="#DejaVuSans-112"/><use id="use601" width="100%" height="100%" x="214.453" y="0" xlink:href="#DejaVuSans-243"/><use id="use603" width="100%" height="100%" x="275.635" y="0" xlink:href="#DejaVuSans-322"/><use id="use605" width="100%" height="100%" x="304.053" y="0" xlink:href="#DejaVuSans-99"/><use id="use607" width="100%" height="100%" x="359.033" y="0" xlink:href="#DejaVuSans-122"/><use id="use609" width="100%" height="100%" x="411.523" y="0" xlink:href="#DejaVuSans-121"/><use id="use611" width="100%" height="100%" x="470.703" y="0" xlink:href="#DejaVuSans-110"/><use id="use613" width="100%" height="100%" x="534.082" y="0" xlink:href="#DejaVuSans-110"/><use id="use615" width="100%" height="100%" x="597.461" y="0" xlink:href="#DejaVuSans-105"/><use id="use617" width="100%" height="100%" x="625.244" y="0" xlink:href="#DejaVuSans-107"/><use id="use619" width="100%" height="100%" x="683.154" y="0" xlink:href="#DejaVuSans-32"/><use id="use621" width="100%" height="100%" x="714.941" y="0" xlink:href="#DejaVuSans-119"/><use id="use623" width="100%" height="100%" x="796.729" y="0" xlink:href="#DejaVuSans-97"/><use id="use625" width="100%" height="100%" x="858.008" y="0" xlink:href="#DejaVuSans-114"/><use id="use627" width="100%" height="100%" x="899.121" y="0" xlink:href="#DejaVuSans-105"/><use id="use629" width="100%" height="100%" x="926.904" y="0" xlink:href="#DejaVuSans-97"/><use id="use631" width="100%" height="100%" x="988.184" y="0" xlink:href="#DejaVuSans-110"/><use id="use633" width="100%" height="100%" x="1051.563" y="0" xlink:href="#DejaVuSans-99"/><use id="use635" width="100%" height="100%" x="1106.543" y="0" xlink:href="#DejaVuSans-106"/><use id="use637" width="100%" height="100%" x="1134.326" y="0" xlink:href="#DejaVuSans-105"/></g></g></g><g id="line2d_55"><path style="fill:none;stroke:#1f77b4;stroke-width:1.5;stroke-linecap:square" id="path643" d="m 115.36364,289.76214 1.29571,-34.49687 1.29572,-26.67744 0.64786,-11.21435 1.29571,-16.00877 1.29572,-13.31248 1.29571,-10.74611 1.94358,-12.96802 1.29571,-7.30118 1.94358,-9.40593 1.94357,-7.87055 1.94357,-6.85325 1.94358,-6.09493 1.94357,-5.19364 2.59143,-5.98876 2.59143,-5.06423 1.94358,-3.43299 2.59143,-3.95368 2.59143,-3.46537 1.94357,-2.334672 2.59144,-2.817877 3.23928,-3.143407 2.59144,-2.198855 3.23929,-2.461018 3.23929,-2.193802 3.23928,-1.896219 3.88715,-2.075749 3.88715,-1.821582 4.535,-1.883633 5.18287,-1.866721 5.18286,-1.614292 6.47858,-1.780413 7.12644,-1.693252 7.77429,-1.560659 8.42215,-1.474057 9.71787,-1.445954 11.01359,-1.406598 11.66144,-1.279863 14.25287,-1.34089 14.90073,-1.177683 17.49217,-1.166042 19.43573,-1.060513 21.37931,-0.936554 22.67503,-0.76338 22.67503,-0.547098 25.91431,-0.400864 32.3929,-0.26669 45.35005,-0.137708 110.13584,-0.02649 h 23.32288 v 0" clip-path="url(#p6a9e0866bc)"/></g><g id="patch_3"><path style="fill:none;stroke:#000;stroke-width:.8;stroke-linecap:square;stroke-linejoin:miter" id="path646" d="M 90,315 V 43.2"/></g><g id="patch_4"><path style="fill:none;stroke:#000;stroke-width:.8;stroke-linecap:square;stroke-linejoin:miter" id="path649" d="M 648,315 V 43.2"/></g><g id="patch_5"><path style="fill:none;stroke:#000;stroke-width:.8;stroke-linecap:square;stroke-linejoin:miter" id="path652" d="M 90,315 H 648"/></g><g id="patch_6"><path style="fill:none;stroke:#000;stroke-width:.8;stroke-linecap:square;stroke-linejoin:miter" id="path655" d="M 90,43.2 H 648"/></g></g></g><defs id="defs663"><clipPath id="p6a9e0866bc"><rect id="rect660" width="558" height="271.8" x="90" y="43.2"/></clipPath></defs></svg>