<svg xmlns="http://www.w3.org/2000/svg" xmlns:svg="http://www.w3.org/2000/svg" xmlns:xlink="http://www.w3.org/1999/xlink" id="svg415" width="800" height="400" version="1.1" viewBox="0 0 600 300"><metadata id="metadata2"/><defs id="defs6"><style id="style4" type="text/css">*{stroke-linecap:butt;stroke-linejoin:round}</style></defs><g id="figure_1" transform="translate(-55.631501,-33.164933)"><g id="patch_1"><path style="fill:none" id="path8" d="M 0,360 H 720 V 0 H 0 Z"/></g><g id="axes_1"><g id="patch_2"><path style="fill:#fff" id="path11" d="M 90,315 H 648 V 43.2 H 90 Z"/></g><g id="PathCollection_1"><defs id="defs15"><path id="m2e5f2ae3db" d="M 0,3 C 0.795609,3 1.55874,2.683901 2.12132,2.12132 2.683901,1.55874 3,0.795609 3,0 3,-0.795609 2.683901,-1.55874 2.12132,-2.12132 1.55874,-2.683901 0.795609,-3 0,-3 -0.795609,-3 -1.55874,-2.683901 -2.12132,-2.12132 -2.683901,-1.55874 -3,-0.795609 -3,0 -3,0.795609 -2.683901,1.55874 -2.12132,2.12132 -1.55874,2.683901 -0.795609,3 0,3 Z" style="stroke:#1f77b4"/></defs><g id="g67" clip-path="url(#pcba79287a1)"><use style="fill:#1f77b4;stroke:#1f77b4" id="use17" width="100%" height="100%" x="115.364" y="181.575" xlink:href="#m2e5f2ae3db"/><use style="fill:#1f77b4;stroke:#1f77b4" id="use19" width="100%" height="100%" x="135.695" y="150.365" xlink:href="#m2e5f2ae3db"/><use style="fill:#1f77b4;stroke:#1f77b4" id="use21" width="100%" height="100%" x="156.027" y="119.745" xlink:href="#m2e5f2ae3db"/><use style="fill:#1f77b4;stroke:#1f77b4" id="use23" width="100%" height="100%" x="176.358" y="113.761" xlink:href="#m2e5f2ae3db"/><use style="fill:#1f77b4;stroke:#1f77b4" id="use25" width="100%" height="100%" x="196.69" y="68.625" xlink:href="#m2e5f2ae3db"/><use style="fill:#1f77b4;stroke:#1f77b4" id="use27" width="100%" height="100%" x="217.022" y="55.555" xlink:href="#m2e5f2ae3db"/><use style="fill:#1f77b4;stroke:#1f77b4" id="use29" width="100%" height="100%" x="237.353" y="78.808" xlink:href="#m2e5f2ae3db"/><use style="fill:#1f77b4;stroke:#1f77b4" id="use31" width="100%" height="100%" x="257.685" y="75.729" xlink:href="#m2e5f2ae3db"/><use style="fill:#1f77b4;stroke:#1f77b4" id="use33" width="100%" height="100%" x="278.016" y="115.048" xlink:href="#m2e5f2ae3db"/><use style="fill:#1f77b4;stroke:#1f77b4" id="use35" width="100%" height="100%" x="298.348" y="124.657" xlink:href="#m2e5f2ae3db"/><use style="fill:#1f77b4;stroke:#1f77b4" id="use37" width="100%" height="100%" x="318.679" y="155.051" xlink:href="#m2e5f2ae3db"/><use style="fill:#1f77b4;stroke:#1f77b4" id="use39" width="100%" height="100%" x="339.011" y="176.987" xlink:href="#m2e5f2ae3db"/><use style="fill:#1f77b4;stroke:#1f77b4" id="use41" width="100%" height="100%" x="359.342" y="169.561" xlink:href="#m2e5f2ae3db"/><use style="fill:#1f77b4;stroke:#1f77b4" id="use43" width="100%" height="100%" x="379.674" y="215.173" xlink:href="#m2e5f2ae3db"/><use style="fill:#1f77b4;stroke:#1f77b4" id="use45" width="100%" height="100%" x="400.006" y="201.806" xlink:href="#m2e5f2ae3db"/><use style="fill:#1f77b4;stroke:#1f77b4" id="use47" width="100%" height="100%" x="420.337" y="233.115" xlink:href="#m2e5f2ae3db"/><use style="fill:#1f77b4;stroke:#1f77b4" id="use49" width="100%" height="100%" x="440.669" y="249.254" xlink:href="#m2e5f2ae3db"/><use style="fill:#1f77b4;stroke:#1f77b4" id="use51" width="100%" height="100%" x="461" y="268.541" xlink:href="#m2e5f2ae3db"/><use style="fill:#1f77b4;stroke:#1f77b4" id="use53" width="100%" height="100%" x="481.332" y="273.782" xlink:href="#m2e5f2ae3db"/><use style="fill:#1f77b4;stroke:#1f77b4" id="use55" width="100%" height="100%" x="501.664" y="284.669" xlink:href="#m2e5f2ae3db"/><use style="fill:#1f77b4;stroke:#1f77b4" id="use57" width="100%" height="100%" x="521.995" y="300.409" xlink:href="#m2e5f2ae3db"/><use style="fill:#1f77b4;stroke:#1f77b4" id="use59" width="100%" height="100%" x="542.327" y="290.91" xlink:href="#m2e5f2ae3db"/><use style="fill:#1f77b4;stroke:#1f77b4" id="use61" width="100%" height="100%" x="562.658" y="265.522" xlink:href="#m2e5f2ae3db"/><use style="fill:#1f77b4;stroke:#1f77b4" id="use63" width="100%" height="100%" x="582.99" y="302.645" xlink:href="#m2e5f2ae3db"/><use style="fill:#1f77b4;stroke:#1f77b4" id="use65" width="100%" height="100%" x="603.321" y="256.312" xlink:href="#m2e5f2ae3db"/></g></g><g id="matplotlib.axis_1"><g id="xtick_1"><g id="line2d_1"><defs id="defs71"><path id="md461960f38" d="M 0,0 V 3.5" style="stroke:#000;stroke-width:.8"/></defs><g id="g75"><use style="stroke:#000;stroke-width:.8" id="use73" width="100%" height="100%" x="115.364" y="315" xlink:href="#md461960f38"/></g></g><g id="text_1"><g id="g89" transform="matrix(0.1,0,0,-0.1,107.41207,329.59844)"><defs id="defs81"><path id="DejaVuSans-49" d="m 12.40625,8.296875 h 16.109375 v 55.625 L 10.984375,60.40625 v 8.984375 l 17.4375,3.515625 H 38.28125 V 8.296875 H 54.390625 V 0 H 12.40625 Z"/><path id="DejaVuSans-46" d="M 10.6875,12.40625 H 21 V 0 H 10.6875 Z"/><path id="DejaVuSans-48" d="m 31.78125,66.40625 q -7.609375,0 -11.453125,-7.5 Q 16.5,51.421875 16.5,36.375 q 0,-14.984375 3.828125,-22.484375 3.84375,-7.5 11.453125,-7.5 7.671875,0 11.5,7.5 3.84375,7.5 3.84375,22.484375 0,15.046875 -3.84375,22.53125 -3.828125,7.5 -11.5,7.5 z m 0,7.8125 q 12.265625,0 18.734375,-9.703125 6.46875,-9.6875 6.46875,-28.140625 0,-18.40625 -6.46875,-28.109375 -6.46875,-9.6875 -18.734375,-9.6875 -12.25,0 -18.71875,9.6875 Q 6.59375,17.96875 6.59375,36.375 q 0,18.453125 6.46875,28.140625 6.46875,9.703125 18.71875,9.703125 z"/></defs><use id="use83" width="100%" height="100%" x="0" y="0" xlink:href="#DejaVuSans-49"/><use id="use85" width="100%" height="100%" x="63.623" y="0" xlink:href="#DejaVuSans-46"/><use id="use87" width="100%" height="100%" x="95.41" y="0" xlink:href="#DejaVuSans-48"/></g></g></g><g id="xtick_2"><g id="line2d_2"><g id="g95"><use style="stroke:#000;stroke-width:.8" id="use93" width="100%" height="100%" x="199.909" y="315" xlink:href="#md461960f38"/></g></g><g id="text_2"><g id="g107" transform="matrix(0.1,0,0,-0.1,191.95753,329.59844)"><defs id="defs99"><path id="DejaVuSans-53" d="m 10.796875,72.90625 h 38.71875 v -8.3125 h -29.6875 V 46.734375 q 2.140625,0.734375 4.28125,1.09375 2.15625,0.359375 4.3125,0.359375 Q 40.625,48.1875 47.75,41.5 54.890625,34.8125 54.890625,23.390625 54.890625,11.625 47.5625,5.09375 40.234375,-1.421875 26.90625,-1.421875 q -4.59375,0 -9.359375,0.78125 -4.75,0.78125 -9.828125,2.34375 V 11.625 q 4.390625,-2.390625 9.078125,-3.5625 4.6875,-1.171875 9.90625,-1.171875 8.453125,0 13.375,4.4375 4.9375,4.4375 4.9375,12.0625 0,7.609375 -4.9375,12.046875 -4.921875,4.453125 -13.375,4.453125 -3.953125,0 -7.890625,-0.875 -3.921875,-0.875 -8.015625,-2.734375 z"/></defs><use id="use101" width="100%" height="100%" x="0" y="0" xlink:href="#DejaVuSans-49"/><use id="use103" width="100%" height="100%" x="63.623" y="0" xlink:href="#DejaVuSans-46"/><use id="use105" width="100%" height="100%" x="95.41" y="0" xlink:href="#DejaVuSans-53"/></g></g></g><g id="xtick_3"><g id="line2d_3"><g id="g113"><use style="stroke:#000;stroke-width:.8" id="use111" width="100%" height="100%" x="284.455" y="315" xlink:href="#md461960f38"/></g></g><g id="text_3"><g id="g125" transform="matrix(0.1,0,0,-0.1,276.50298,329.59844)"><defs id="defs117"><path id="DejaVuSans-50" d="M 19.1875,8.296875 H 53.609375 V 0 H 7.328125 v 8.296875 q 5.609375,5.8125 15.296875,15.59375 9.703125,9.796875 12.1875,12.640625 4.734375,5.3125 6.609375,9 1.890625,3.6875 1.890625,7.25 0,5.8125 -4.078125,9.46875 -4.078125,3.671875 -10.625,3.671875 -4.640625,0 -9.796875,-1.609375 -5.140625,-1.609375 -11,-4.890625 v 9.96875 Q 13.765625,71.78125 18.9375,73 q 5.1875,1.21875 9.484375,1.21875 11.328125,0 18.0625,-5.671875 6.734375,-5.65625 6.734375,-15.125 0,-4.5 -1.6875,-8.53125 Q 49.859375,40.875 45.40625,35.40625 44.1875,33.984375 37.640625,27.21875 31.109375,20.453125 19.1875,8.296875 Z"/></defs><use id="use119" width="100%" height="100%" x="0" y="0" xlink:href="#DejaVuSans-50"/><use id="use121" width="100%" height="100%" x="63.623" y="0" xlink:href="#DejaVuSans-46"/><use id="use123" width="100%" height="100%" x="95.41" y="0" xlink:href="#DejaVuSans-48"/></g></g></g><g id="xtick_4"><g id="line2d_4"><g id="g131"><use style="stroke:#000;stroke-width:.8" id="use129" width="100%" height="100%" x="369" y="315" xlink:href="#md461960f38"/></g></g><g id="text_4"><g id="g140" transform="matrix(0.1,0,0,-0.1,361.04844,329.59844)"><use id="use134" width="100%" height="100%" x="0" y="0" xlink:href="#DejaVuSans-50"/><use id="use136" width="100%" height="100%" x="63.623" y="0" xlink:href="#DejaVuSans-46"/><use id="use138" width="100%" height="100%" x="95.41" y="0" xlink:href="#DejaVuSans-53"/></g></g></g><g id="xtick_5"><g id="line2d_5"><g id="g146"><use style="stroke:#000;stroke-width:.8" id="use144" width="100%" height="100%" x="453.545" y="315" xlink:href="#md461960f38"/></g></g><g id="text_5"><g id="g158" transform="matrix(0.1,0,0,-0.1,445.59389,329.59844)"><defs id="defs150"><path id="DejaVuSans-51" d="M 40.578125,39.3125 Q 47.65625,37.796875 51.625,33 q 3.984375,-4.78125 3.984375,-11.8125 0,-10.78125 -7.421875,-16.703125 -7.421875,-5.90625 -21.09375,-5.90625 -4.578125,0 -9.4375,0.90625 -4.859375,0.90625 -10.03125,2.71875 v 9.515625 q 4.09375,-2.390625 8.96875,-3.609375 4.890625,-1.21875 10.21875,-1.21875 9.265625,0 14.125,3.65625 4.859375,3.65625 4.859375,10.640625 0,6.453125 -4.515625,10.078125 -4.515625,3.640625 -12.5625,3.640625 h -8.5 v 8.109375 h 8.890625 q 7.265625,0 11.125,2.90625 3.859375,2.90625 3.859375,8.375 0,5.609375 -3.984375,8.609375 -3.96875,3.015625 -11.390625,3.015625 -4.0625,0 -8.703125,-0.890625 Q 15.375,64.15625 9.8125,62.3125 v 8.78125 q 5.625,1.5625 10.53125,2.34375 4.90625,0.78125 9.25,0.78125 11.234375,0 17.765625,-5.109375 6.546875,-5.09375 6.546875,-13.78125 0,-6.0625 -3.46875,-10.234375 -3.46875,-4.171875 -9.859375,-5.78125 z"/></defs><use id="use152" width="100%" height="100%" x="0" y="0" xlink:href="#DejaVuSans-51"/><use id="use154" width="100%" height="100%" x="63.623" y="0" xlink:href="#DejaVuSans-46"/><use id="use156" width="100%" height="100%" x="95.41" y="0" xlink:href="#DejaVuSans-48"/></g></g></g><g id="xtick_6"><g id="line2d_6"><g id="g164"><use style="stroke:#000;stroke-width:.8" id="use162" width="100%" height="100%" x="538.091" y="315" xlink:href="#md461960f38"/></g></g><g id="text_6"><g id="g173" transform="matrix(0.1,0,0,-0.1,530.13935,329.59844)"><use id="use167" width="100%" height="100%" x="0" y="0" xlink:href="#DejaVuSans-51"/><use id="use169" width="100%" height="100%" x="63.623" y="0" xlink:href="#DejaVuSans-46"/><use id="use171" width="100%" height="100%" x="95.41" y="0" xlink:href="#DejaVuSans-53"/></g></g></g><g id="xtick_7"><g id="line2d_7"><g id="g179"><use style="stroke:#000;stroke-width:.8" id="use177" width="100%" height="100%" x="622.636" y="315" xlink:href="#md461960f38"/></g></g><g id="text_7"><g id="g191" transform="matrix(0.1,0,0,-0.1,614.6848,329.59844)"><defs id="defs183"><path id="DejaVuSans-52" d="M 37.796875,64.3125 12.890625,25.390625 h 24.90625 z m -2.59375,8.59375 h 12.40625 V 25.390625 h 10.40625 V 17.1875 H 47.609375 V 0 h -9.8125 V 17.1875 H 4.890625 v 9.515625 z"/></defs><use id="use185" width="100%" height="100%" x="0" y="0" xlink:href="#DejaVuSans-52"/><use id="use187" width="100%" height="100%" x="63.623" y="0" xlink:href="#DejaVuSans-46"/><use id="use189" width="100%" height="100%" x="95.41" y="0" xlink:href="#DejaVuSans-48"/></g></g></g></g><g id="matplotlib.axis_2"><g id="ytick_1"><g id="line2d_8"><defs id="defs197"><path id="m973f5e24c3" d="M 0,0 H -3.5" style="stroke:#000;stroke-width:.8"/></defs><g id="g201"><use style="stroke:#000;stroke-width:.8" id="use199" width="100%" height="100%" x="90" y="298.344" xlink:href="#m973f5e24c3"/></g></g><g id="text_8"><g id="g215" transform="matrix(0.1,0,0,-0.1,58.717187,302.14285)"><defs id="defs205"><path id="DejaVuSans-8722" d="M 10.59375,35.5 H 73.1875 V 27.203125 H 10.59375 Z"/></defs><use id="use207" width="100%" height="100%" x="0" y="0" xlink:href="#DejaVuSans-8722"/><use id="use209" width="100%" height="100%" x="83.789" y="0" xlink:href="#DejaVuSans-49"/><use id="use211" width="100%" height="100%" x="147.412" y="0" xlink:href="#DejaVuSans-46"/><use id="use213" width="100%" height="100%" x="179.199" y="0" xlink:href="#DejaVuSans-53"/></g></g></g><g id="ytick_2"><g id="line2d_9"><g id="g221"><use style="stroke:#000;stroke-width:.8" id="use219" width="100%" height="100%" x="90" y="266.198" xlink:href="#m973f5e24c3"/></g></g><g id="text_9"><g id="g232" transform="matrix(0.1,0,0,-0.1,58.717187,269.99722)"><use id="use224" width="100%" height="100%" x="0" y="0" xlink:href="#DejaVuSans-8722"/><use id="use226" width="100%" height="100%" x="83.789" y="0" xlink:href="#DejaVuSans-49"/><use id="use228" width="100%" height="100%" x="147.412" y="0" xlink:href="#DejaVuSans-46"/><use id="use230" width="100%" height="100%" x="179.199" y="0" xlink:href="#DejaVuSans-48"/></g></g></g><g id="ytick_3"><g id="line2d_10"><g id="g238"><use style="stroke:#000;stroke-width:.8" id="use236" width="100%" height="100%" x="90" y="234.052" xlink:href="#m973f5e24c3"/></g></g><g id="text_10"><g id="g249" transform="matrix(0.1,0,0,-0.1,58.717187,237.8516)"><use id="use241" width="100%" height="100%" x="0" y="0" xlink:href="#DejaVuSans-8722"/><use id="use243" width="100%" height="100%" x="83.789" y="0" xlink:href="#DejaVuSans-48"/><use id="use245" width="100%" height="100%" x="147.412" y="0" xlink:href="#DejaVuSans-46"/><use id="use247" width="100%" height="100%" x="179.199" y="0" xlink:href="#DejaVuSans-53"/></g></g></g><g id="ytick_4"><g id="line2d_11"><g id="g255"><use style="stroke:#000;stroke-width:.8" id="use253" width="100%" height="100%" x="90" y="201.907" xlink:href="#m973f5e24c3"/></g></g><g id="text_11"><g id="g264" transform="matrix(0.1,0,0,-0.1,67.096875,205.70597)"><use id="use258" width="100%" height="100%" x="0" y="0" xlink:href="#DejaVuSans-48"/><use id="use260" width="100%" height="100%" x="63.623" y="0" xlink:href="#DejaVuSans-46"/><use id="use262" width="100%" height="100%" x="95.41" y="0" xlink:href="#DejaVuSans-48"/></g></g></g><g id="ytick_5"><g id="line2d_12"><g id="g270"><use style="stroke:#000;stroke-width:.8" id="use268" width="100%" height="100%" x="90" y="169.761" xlink:href="#m973f5e24c3"/></g></g><g id="text_12"><g id="g279" transform="matrix(0.1,0,0,-0.1,67.096875,173.56034)"><use id="use273" width="100%" height="100%" x="0" y="0" xlink:href="#DejaVuSans-48"/><use id="use275" width="100%" height="100%" x="63.623" y="0" xlink:href="#DejaVuSans-46"/><use id="use277" width="100%" height="100%" x="95.41" y="0" xlink:href="#DejaVuSans-53"/></g></g></g><g id="ytick_6"><g id="line2d_13"><g id="g285"><use style="stroke:#000;stroke-width:.8" id="use283" width="100%" height="100%" x="90" y="137.615" xlink:href="#m973f5e24c3"/></g></g><g id="text_13"><g id="g294" transform="matrix(0.1,0,0,-0.1,67.096875,141.41471)"><use id="use288" width="100%" height="100%" x="0" y="0" xlink:href="#DejaVuSans-49"/><use id="use290" width="100%" height="100%" x="63.623" y="0" xlink:href="#DejaVuSans-46"/><use id="use292" width="100%" height="100%" x="95.41" y="0" xlink:href="#DejaVuSans-48"/></g></g></g><g id="ytick_7"><g id="line2d_14"><g id="g300"><use style="stroke:#000;stroke-width:.8" id="use298" width="100%" height="100%" x="90" y="105.47" xlink:href="#m973f5e24c3"/></g></g><g id="text_14"><g id="g309" transform="matrix(0.1,0,0,-0.1,67.096875,109.26909)"><use id="use303" width="100%" height="100%" x="0" y="0" xlink:href="#DejaVuSans-49"/><use id="use305" width="100%" height="100%" x="63.623" y="0" xlink:href="#DejaVuSans-46"/><use id="use307" width="100%" height="100%" x="95.41" y="0" xlink:href="#DejaVuSans-53"/></g></g></g><g id="ytick_8"><g id="line2d_15"><g id="g315"><use style="stroke:#000;stroke-width:.8" id="use313" width="100%" height="100%" x="90" y="73.324" xlink:href="#m973f5e24c3"/></g></g><g id="text_15"><g id="g324" transform="matrix(0.1,0,0,-0.1,67.096875,77.123459)"><use id="use318" width="100%" height="100%" x="0" y="0" xlink:href="#DejaVuSans-50"/><use id="use320" width="100%" height="100%" x="63.623" y="0" xlink:href="#DejaVuSans-46"/><use id="use322" width="100%" height="100%" x="95.41" y="0" xlink:href="#DejaVuSans-48"/></g></g></g></g><g id="line2d_16"><path style="fill:none;stroke:green;stroke-width:1.5;stroke-linecap:square" id="path329" d="m 115.36364,169.76112 5.08289,-9.33647 4.06631,-7.0504 4.06632,-6.68463 4.06631,-6.32487 4.06632,-5.97109 4.06631,-5.6233 4.06632,-5.28149 4.06631,-4.9457 4.06631,-4.61587 4.06632,-4.29205 4.06631,-3.97421 4.06632,-3.66237 4.06631,-3.356512 4.06632,-3.056648 4.06631,-2.762774 4.06632,-2.474891 4.06631,-2.192999 4.06631,-1.917096 4.06632,-1.647186 4.06631,-1.383264 4.06632,-1.125334 4.06631,-0.873395 4.06632,-0.627446 4.06631,-0.387487 4.06632,-0.153519 4.06631,0.07446 4.06631,0.296444 4.06632,0.512441 4.06631,0.722446 4.06632,0.926462 4.06631,1.124486 4.06632,1.316519 5.08289,1.906571 5.08289,2.185563 5.0829,2.452855 5.08289,2.708446 5.08289,2.952338 5.0829,3.18453 6.09947,4.11145 6.09947,4.40874 6.09947,4.68581 6.09947,4.94266 7.11605,6.0641 7.11605,6.35407 8.13263,7.57569 9.14921,8.86558 10.16578,10.19647 12.19895,12.5886 18.29841,19.26766 21.34815,22.41085 11.18237,11.43518 10.16579,10.07677 8.13262,7.77762 8.13263,7.47345 7.11605,6.25206 7.11605,5.95039 6.09947,4.83587 6.09948,4.57042 6.09947,4.28476 6.09947,3.97886 5.08289,3.06747 5.0829,2.82931 5.08289,2.57944 5.08289,2.31788 5.0829,2.04461 5.08289,1.75965 4.06631,1.19468 4.06632,0.99883 4.06631,0.79698 4.06632,0.58914 4.06631,0.37531 4.06632,0.1555 4.06631,-0.0703 4.06631,-0.30212 4.06632,-0.5399 4.06631,-0.78369 4.06632,-1.03345 4.06631,-1.28922 4.06632,-1.55097 4.06631,-1.81871 4.06632,-2.09245 4.06631,-2.37217 4.06631,-2.65789 4.06632,-2.94959 4.06631,-3.24728 4.06632,-3.55098 4.06631,-3.86065 4.06632,-4.17632 4.06631,-4.49798 4.06632,-4.82562 4.06631,-5.15927 4.06631,-5.49889 4.06632,-5.84452 4.06631,-6.19613 4.06632,-6.55373 3.04973,-5.15357 v 0" clip-path="url(#pcba79287a1)"/></g><g id="line2d_17"><path style="fill:none;stroke:orange;stroke-width:1.5;stroke-linecap:square" id="path332" d="M 115.36364,73.324241 622.63636,298.34363" clip-path="url(#pcba79287a1)"/></g><g id="patch_3"><path style="fill:none;stroke:#000;stroke-width:.8;stroke-linecap:square;stroke-linejoin:miter" id="path335" d="M 90,315 V 43.2"/></g><g id="patch_4"><path style="fill:none;stroke:#000;stroke-width:.8;stroke-linecap:square;stroke-linejoin:miter" id="path338" d="M 648,315 V 43.2"/></g><g id="patch_5"><path style="fill:none;stroke:#000;stroke-width:.8;stroke-linecap:square;stroke-linejoin:miter" id="path341" d="M 90,315 H 648"/></g><g id="patch_6"><path style="fill:none;stroke:#000;stroke-width:.8;stroke-linecap:square;stroke-linejoin:miter" id="path344" d="M 90,43.2 H 648"/></g><g id="legend_1"><g id="patch_7"><path style="opacity:.8;fill:#fff;stroke:#ccc;stroke-linejoin:miter" id="path347" d="M 545.13281,80.55625 H 641 q 2,0 2,-2 V 50.2 q 0,-2 -2,-2 h -95.86719 q -2,0 -2,2 v 28.35625 q 0,2 2,2 z"/></g><g id="line2d_18"><path style="fill:none;stroke:green;stroke-width:1.5;stroke-linecap:square" id="path350" d="m 547.13281,56.298437 h 20"/></g><g id="text_16"><g id="g387" transform="matrix(0.1,0,0,-0.1,575.13281,59.798437)"><defs id="defs363"><path id="DejaVuSans-65" d="M 34.1875,63.1875 20.796875,26.90625 h 26.8125 z m -5.578125,9.71875 h 11.1875 L 67.578125,0 h -10.25 L 50.6875,18.703125 H 17.828125 L 11.1875,0 H 0.78125 Z"/><path id="DejaVuSans-117" d="M 8.5,21.578125 V 54.6875 h 8.984375 V 21.921875 q 0,-7.765625 3.015625,-11.65625 3.03125,-3.875 9.09375,-3.875 7.265625,0 11.484375,4.640625 4.234375,4.640625 4.234375,12.65625 v 31 h 8.984375 V 0 H 45.3125 V 8.40625 Q 42.046875,3.421875 37.71875,1 33.40625,-1.421875 27.6875,-1.421875 18.265625,-1.421875 13.375,4.4375 8.5,10.296875 8.5,21.578125 Z M 31.109375,56 Z"/><path id="DejaVuSans-116" d="M 18.3125,70.21875 V 54.6875 h 18.5 v -6.984375 h -18.5 v -29.6875 q 0,-6.6875 1.828125,-8.59375 1.828125,-1.90625 7.453125,-1.90625 H 36.8125 V 0 H 27.59375 Q 17.1875,0 13.234375,3.875 9.28125,7.765625 9.28125,18.015625 v 29.6875 H 2.6875 V 54.6875 h 6.59375 v 15.53125 z"/><path id="DejaVuSans-111" d="m 30.609375,48.390625 q -7.21875,0 -11.421875,-5.640625 -4.203125,-5.640625 -4.203125,-15.453125 0,-9.8125 4.171875,-15.453125 4.1875,-5.640625 11.453125,-5.640625 7.1875,0 11.375,5.65625 4.203125,5.671875 4.203125,15.4375 0,9.71875 -4.203125,15.40625 -4.1875,5.6875 -11.375,5.6875 z m 0,7.609375 q 11.71875,0 18.40625,-7.625 6.703125,-7.609375 6.703125,-21.078125 0,-13.421875 -6.703125,-21.078125 -6.6875,-7.640625 -18.40625,-7.640625 -11.765625,0 -18.4375,7.640625 -6.65625,7.65625 -6.65625,21.078125 0,13.46875 6.65625,21.078125 Q 18.84375,56 30.609375,56 Z"/><path id="DejaVuSans-101" d="m 56.203125,29.59375 v -4.390625 h -41.3125 q 0.59375,-9.28125 5.59375,-14.140625 5,-4.859375 13.9375,-4.859375 5.171875,0 10.03125,1.265625 4.859375,1.265625 9.65625,3.8125 v -8.5 q -4.84375,-2.046875 -9.921875,-3.125 -5.078125,-1.078125 -10.296875,-1.078125 -13.09375,0 -20.734375,7.609375 -7.640625,7.625 -7.640625,20.625 0,13.421875 7.25,21.296875 Q 20.015625,56 32.328125,56 q 11.03125,0 17.453125,-7.109375 6.421875,-7.09375 6.421875,-19.296875 z m -8.984375,2.640625 q -0.09375,7.359375 -4.125,11.75 -4.03125,4.40625 -10.671875,4.40625 -7.515625,0 -12.03125,-4.25 -4.515625,-4.25 -5.203125,-11.96875 z"/><path id="DejaVuSans-110" d="M 54.890625,33.015625 V 0 H 45.90625 v 32.71875 q 0,7.765625 -3.03125,11.609375 -3.03125,3.859375 -9.078125,3.859375 -7.28125,0 -11.484375,-4.640625 -4.203125,-4.625 -4.203125,-12.640625 V 0 h -9.03125 v 54.6875 h 9.03125 v -8.5 q 3.234375,4.9375 7.59375,7.375 4.375,2.4375 10.09375,2.4375 9.421875,0 14.25,-5.828125 4.84375,-5.828125 4.84375,-17.15625 z"/><path id="DejaVuSans-107" d="m 9.078125,75.984375 h 9.03125 v -44.875 l 26.8125,23.578125 h 11.46875 l -29,-25.578125 L 57.625,0 H 45.90625 L 18.109375,26.703125 V 0 h -9.03125 z"/><path id="DejaVuSans-100" d="m 45.40625,46.390625 v 29.59375 h 8.984375 V 0 H 45.40625 v 8.203125 q -2.828125,-4.875 -7.15625,-7.25 -4.3125,-2.375 -10.375,-2.375 -9.90625,0 -16.140625,7.90625 -6.21875,7.921875 -6.21875,20.8125 0,12.890625 6.21875,20.796875 Q 17.96875,56 27.875,56 q 6.0625,0 10.375,-2.375 4.328125,-2.359375 7.15625,-7.234375 z M 14.796875,27.296875 q 0,-9.90625 4.078125,-15.546875 4.078125,-5.640625 11.203125,-5.640625 7.125,0 11.21875,5.640625 4.109375,5.640625 4.109375,15.546875 0,9.90625 -4.109375,15.546875 -4.09375,5.640625 -11.21875,5.640625 -7.125,0 -11.203125,-5.640625 -4.078125,-5.640625 -4.078125,-15.546875 z"/><path id="DejaVuSans-114" d="m 41.109375,46.296875 q -1.515625,0.875 -3.296875,1.28125 Q 36.03125,48 33.890625,48 26.265625,48 22.1875,43.046875 18.109375,38.09375 18.109375,28.8125 V 0 h -9.03125 v 54.6875 h 9.03125 v -8.5 q 2.84375,4.984375 7.375,7.390625 Q 30.03125,56 36.53125,56 q 0.921875,0 2.046875,-0.125 1.125,-0.109375 2.484375,-0.359375 z"/></defs><use id="use365" width="100%" height="100%" x="0" y="0" xlink:href="#DejaVuSans-65"/><use id="use367" width="100%" height="100%" x="68.408" y="0" xlink:href="#DejaVuSans-117"/><use id="use369" width="100%" height="100%" x="131.787" y="0" xlink:href="#DejaVuSans-116"/><use id="use371" width="100%" height="100%" x="170.996" y="0" xlink:href="#DejaVuSans-111"/><use id="use373" width="100%" height="100%" x="232.178" y="0" xlink:href="#DejaVuSans-101"/><use id="use375" width="100%" height="100%" x="293.701" y="0" xlink:href="#DejaVuSans-110"/><use id="use377" width="100%" height="100%" x="357.08" y="0" xlink:href="#DejaVuSans-107"/><use id="use379" width="100%" height="100%" x="411.365" y="0" xlink:href="#DejaVuSans-111"/><use id="use381" width="100%" height="100%" x="472.547" y="0" xlink:href="#DejaVuSans-100"/><use id="use383" width="100%" height="100%" x="536.023" y="0" xlink:href="#DejaVuSans-101"/><use id="use385" width="100%" height="100%" x="597.547" y="0" xlink:href="#DejaVuSans-114"/></g></g><g id="line2d_20"><path style="fill:none;stroke:orange;stroke-width:1.5;stroke-linecap:square" id="path390" d="m 547.13281,70.976562 h 20"/></g><g id="text_17"><g id="g404" transform="matrix(0.1,0,0,-0.1,575.13281,74.476562)"><defs id="defs396"><path id="DejaVuSans-80" d="M 19.671875,64.796875 V 37.40625 h 12.40625 q 6.890625,0 10.640625,3.5625 3.765625,3.5625 3.765625,10.15625 0,6.546875 -3.765625,10.109375 -3.75,3.5625 -10.640625,3.5625 z M 9.8125,72.90625 h 22.265625 q 12.265625,0 18.53125,-5.546875 6.28125,-5.546875 6.28125,-16.234375 0,-10.796875 -6.28125,-16.3125 -6.265625,-5.515625 -18.53125,-5.515625 H 19.671875 V 0 H 9.8125 Z"/><path id="DejaVuSans-67" d="M 64.40625,67.28125 V 56.890625 q -4.984375,4.640625 -10.625,6.921875 -5.640625,2.296875 -11.984375,2.296875 -12.5,0 -19.140625,-7.640625 -6.640625,-7.640625 -6.640625,-22.09375 0,-14.40625 6.640625,-22.046875 Q 29.296875,6.6875 41.796875,6.6875 q 6.34375,0 11.984375,2.296875 5.640625,2.296875 10.625,6.9375 V 5.609375 Q 59.234375,2.09375 53.4375,0.328125 q -5.78125,-1.75 -12.21875,-1.75 -16.5625,0 -26.09375,10.125 Q 5.609375,18.84375 5.609375,36.375 q 0,17.578125 9.515625,27.703125 9.53125,10.140625 26.09375,10.140625 6.53125,0 12.3125,-1.734375 5.796875,-1.734375 10.875,-5.203125 z"/></defs><use id="use398" width="100%" height="100%" x="0" y="0" xlink:href="#DejaVuSans-80"/><use id="use400" width="100%" height="100%" x="60.303" y="0" xlink:href="#DejaVuSans-67"/><use id="use402" width="100%" height="100%" x="130.127" y="0" xlink:href="#DejaVuSans-65"/></g></g></g></g></g><defs id="defs413"><clipPath id="pcba79287a1"><rect id="rect410" width="558" height="271.8" x="90" y="43.2"/></clipPath></defs></svg>